<svg xmlns="http://www.w3.org/2000/svg" version="1.0" viewBox="0 0 164 193">
  <g fill="#fff">
    <path d="M49.5 23.9C31.4 34.7 13.7 45.2 10.4 47.3L4.2 51l-.7 13.5c-.4 7.5-.4 28.5.1 46.7l.9 33.2 11 6.4C32.9 161 60.4 176.2 73.6 183l12.2 6.2 31.8-18.7c42.7-25.1 46.7-27.6 45.6-28.7-2.4-2.4-7.1-.8-19.7 6.7-27.3 16.2-58 33.8-59 33.8s-72.4-39.9-73.7-41.1c-.3-.4-.9-20.1-1.3-43.7l-.7-43 31.4-18.1C75.3 16 81 13 84.2 13c1.2 0 15.7 7.6 32.3 16.9 37.6 21.2 40.1 22.4 43.1 21.7 4.9-1.3 3.8-2.1-23.6-17.6C116.4 22.8 89.2 7.6 85.5 5.8l-3-1.5-33 19.6z"/>
    <path d="M47 35.7 11.7 56.5l.7 39c.4 21.4.9 40 1.2 41.2.6 2.3 12.3 9.7 42.9 27.1 18 10.2 26 14.2 28.3 14.2 1.1 0 4.1-1.2 6.8-2.6 7.7-4.1 57.7-34 59.9-35.9 2.9-2.4-11.2 5.2-31.5 17-9.6 5.6-21.7 12.4-26.7 15.1l-9.3 4.9-8.2-4.4c-7-3.7-20.4-11.2-54.8-30.6l-5.5-3.1-.2-40.9-.3-41 32.2-18.9c17.7-10.4 33.1-19.1 34.3-19.4 2.7-.5 8.7 2.5 38.5 19.3 27.1 15.3 32 17.8 32.7 17.2.5-.6-3.8-3.1-40.9-24.1C96.5 22 83.7 15 83.2 15S66.5 24.3 47 35.7z"/>
    <path d="M90 61.2c-18.3 8.7-27.3 15.1-18.8 13.4 1.7-.3 7.9-2.7 13.7-5.2 5.8-2.5 12.8-4.8 15.4-5.1 2.8-.4 5.1-1.2 5.4-2 .5-1.3-3.3-6.4-4.6-6.2-.3 0-5.3 2.3-11.1 5.1zM99.3 72c0 3 .2 4.3.4 2.7.2-1.5.2-3.9 0-5.5-.2-1.5-.4-.2-.4 2.8zm1.9 11c-2.4 29.7-2.4 29.6-1.4 28 1.2-1.9 3.5-30.5 3-38-.2-3.8-.7-.8-1.6 10zm-8.6-12.5c-.3.9-.5 4.2-.5 7.3l.2 5.7.8-7c.8-7.1.7-8.9-.5-6zm-3.8 1c-.4 1.1-1.2 9.4-1.8 18.5-.6 9.1-1.3 18.1-1.6 20-.4 2.4-.2 3.2.5 2.5 1.1-1.1 4.5-36.8 3.9-40.7-.4-2.2-.4-2.2-1-.3zm7.4.5c0 1.4.2 1.9.5 1.2.2-.6.2-1.8 0-2.5-.3-.6-.5-.1-.5 1.3zm12.5 2.9c-.4 1.8-.6 6.3-.6 10l.2 6.6.9-7c.5-3.9.7-8.4.6-10l-.3-3-.8 3.4zm-27.4 1.6c0 2.2.2 3 .4 1.7.2-1.2.2-3 0-4-.3-.9-.5.1-.4 2.3zm3.9-.5c0 1.4.2 1.9.5 1.2.2-.6.2-1.8 0-2.5-.3-.6-.5-.1-.5 1.3zM64 77c0 .5.5 1 1.1 1 .5 0 .7-.5.4-1-.3-.6-.8-1-1.1-1-.2 0-.4.4-.4 1zm8.1-.1c-1 .6-1 1-.1 1.6 1.4.9 6-.2 6-1.5 0-1.2-4-1.3-5.9-.1zm33.1 3.6c0 1.6.2 2.2.5 1.2.2-.9.2-2.3 0-3-.3-.6-.5.1-.5 1.8zm6.6 2c-.4 2.2-.7 6.9-.7 10.5l.2 6.5.9-7.5c.4-4.1.7-8.9.6-10.5-.3-2.8-.4-2.7-1 1zm-44-1.8c1.2.2 3 .2 4 0 .9-.3-.1-.5-2.3-.4-2.2 0-3 .2-1.7.4zm16.5 8.8c0 2.2.2 3 .4 1.7.2-1.2.2-3 0-4-.3-.9-.5.1-.4 2.3zm-19-1.8c.9.2 2.3.2 3 0 .6-.3-.1-.5-1.8-.5-1.6 0-2.2.2-1.2.5zM97.2 92c0 1.9.2 2.7.5 1.7.2-.9.2-2.5 0-3.5-.3-.9-.5-.1-.5 1.8zm-19.7 6c-4.1 8.2-4.3 9.9-1.1 12.9 3.5 3.3 3.6 3.1 4.9-15.2.2-2.6.2-4.7.1-4.7-.2 0-2 3.1-3.9 7zm13.1-2.9c-.8 4.1-1.8 20.4-1.1 19.8.7-.7 2.6-21.2 2-21.8-.2-.2-.6.7-.9 2zm-27.3 1.6c.9.2 2.3.2 3 0 .6-.3-.1-.5-1.8-.5-1.6 0-2.2.2-1.2.5zm40.9 3.3c0 1.4.2 1.9.5 1.2.2-.6.2-1.8 0-2.5-.3-.6-.5-.1-.5 1.3zm-40.9.7c.9.2 2.5.2 3.5 0 .9-.3.1-.5-1.8-.5-1.9 0-2.7.2-1.7.5zm29.9 3.3c0 1.9.2 2.7.5 1.7.2-.9.2-2.5 0-3.5-.3-.9-.5-.1-.5 1.8zm-29.9-.3c.9.2 2.3.2 3 0 .6-.3-.1-.5-1.8-.5-1.6 0-2.2.2-1.2.5zm41 6.6c-4 3.4-8.5 7.1-9.9 8.2-2.1 1.7-2.8 3.2-3.2 7.5l-.5 5.4 4.9-2.9c10.2-5.9 16.3-10.7 17.3-13.8 1.5-4.2 1.4-10.7-.1-10.7-.7 0-4.6 2.9-8.5 6.3zm-8.1-3.3c0 1.4.2 1.9.5 1.2.2-.6.2-1.8 0-2.5-.3-.6-.5-.1-.5 1.3zm-31.4.7c.6.2 1.8.2 2.5 0 .6-.3.1-.5-1.3-.5-1.4 0-1.9.2-1.2.5zm5 5c.7.3 1.6.2 1.9-.1.4-.3-.2-.6-1.3-.5-1.1 0-1.4.3-.6.6zm7 4c.6.2 1.8.2 2.5 0 .6-.3.1-.5-1.3-.5-1.4 0-1.9.2-1.2.5zm3.5 3c.9.2 2.5.2 3.5 0 .9-.3.1-.5-1.8-.5-1.9 0-2.7.2-1.7.5zm1 4c.9.2 2.3.2 3 0 .6-.3-.1-.5-1.8-.5-1.6 0-2.2.2-1.2.5zm1.5 9c.7.3 1.6.2 1.9-.1.4-.3-.2-.6-1.3-.5-1.1 0-1.4.3-.6.6z"/>
  </g>
</svg>
