<svg width="18.000000" height="18.000000" viewBox="0 0 18 18" fill="none" xmlns="http://www.w3.org/2000/svg" xmlns:xlink="http://www.w3.org/1999/xlink">
	<desc>
			Created with Pixso.
	</desc>
	<defs/>
	<path id="Vector" d="M3.62 7.78C5.06 10.62 7.37 12.94 10.21 14.38L12.4 12.18C12.68 11.9 13.08 11.82 13.42 11.93C14.55 12.3 15.75 12.5 17 12.5C17.26 12.5 17.51 12.6 17.7 12.79C17.89 12.98 18 13.23 18 13.5L18 17C18 17.26 17.89 17.51 17.7 17.7C17.51 17.89 17.26 18 17 18C12.49 18 8.16 16.2 4.97 13.02C1.79 9.83 0 5.5 0 1C0 0.73 0.1 0.48 0.29 0.29C0.48 0.1 0.73 0 1 0L4.5 0C4.76 0 5.01 0.1 5.2 0.29C5.39 0.48 5.5 0.73 5.5 1C5.5 2.25 5.69 3.45 6.07 4.57C6.17 4.92 6.1 5.31 5.82 5.59L3.62 7.78Z" fill="#FFE522" fill-opacity="1.000000" fill-rule="nonzero"/>
</svg>
