<?xml version="1.0" encoding="UTF-8"?>
<!DOCTYPE svg PUBLIC "-//W3C//DTD SVG 1.1//EN" "http://www.w3.org/Graphics/SVG/1.1/DTD/svg11.dtd">
<svg xmlns="http://www.w3.org/2000/svg" version="1.1" width="137px" height="156px" style="shape-rendering:geometricPrecision; text-rendering:geometricPrecision; image-rendering:optimizeQuality; fill-rule:evenodd; clip-rule:evenodd" xmlns:xlink="http://www.w3.org/1999/xlink">
<g><path style="opacity:0.997" fill="#efefef" d="M 133.5,37.5 C 131.958,39.9535 129.958,40.6201 127.5,39.5C 108.694,29.2633 90.0274,18.7633 71.5,8C 69.6354,6.69862 67.6354,6.36528 65.5,7C 45.9177,18.374 26.4177,29.874 7,41.5C 6.5001,54.8292 6.33344,68.1625 6.5,81.5C 6.17225,92.3464 6.50558,103.013 7.5,113.5C 27.7096,125.526 48.2096,137.193 69,148.5C 88.9602,136.438 109.127,124.771 129.5,113.5C 132.694,113.176 133.694,114.342 132.5,117C 111.336,129.081 90.3355,141.414 69.5,154C 69.7284,154.399 70.0618,154.565 70.5,154.5C 70.5,154.833 70.5,155.167 70.5,155.5C 68.8333,155.5 67.1667,155.5 65.5,155.5C 65.5,155.167 65.5,154.833 65.5,154.5C 66.552,154.649 67.552,154.483 68.5,154C 46.6667,141.5 24.8333,129 3,116.5C 2.83102,102.994 2.33102,89.6604 1.5,76.5C 1.5,64.1667 1.5,51.8333 1.5,39.5C 23.1835,26.3236 45.1835,13.6569 67.5,1.5C 89.7469,13.0879 111.747,25.0879 133.5,37.5 Z"/></g>
<g><path style="opacity:0.984" fill="#262626" d="M 127.5,39.5 C 128.85,40.6499 128.684,41.3166 127,41.5C 106.941,30.8876 87.1077,19.8876 67.5,8.5C 48.1391,19.8449 28.8058,31.1782 9.5,42.5C 8.83333,42.5 8.5,42.8333 8.5,43.5C 7.83333,56.1667 7.16667,68.8333 6.5,81.5C 6.33344,68.1625 6.5001,54.8292 7,41.5C 26.4177,29.874 45.9177,18.374 65.5,7C 67.6354,6.36528 69.6354,6.69862 71.5,8C 90.0274,18.7633 108.694,29.2633 127.5,39.5 Z"/></g>
<g><path style="opacity:0.518" fill="#aeaeae" d="M 64.5,-0.5 C 66.1667,-0.5 67.8333,-0.5 69.5,-0.5C 90.7982,11.4845 112.132,23.4845 133.5,35.5C 134.506,36.3957 134.506,37.0623 133.5,37.5C 111.747,25.0879 89.7469,13.0879 67.5,1.5C 45.1835,13.6569 23.1835,26.3236 1.5,39.5C 1.06233,38.4937 0.395666,38.4937 -0.5,39.5C -0.5,38.8333 -0.5,38.1667 -0.5,37.5C 21.6671,25.5869 43.3338,12.9202 64.5,-0.5 Z"/></g>
<g><path style="opacity:0.969" fill="#d5d5d5" d="M 127.5,39.5 C 129.958,40.6201 131.958,39.9535 133.5,37.5C 134.506,37.0623 134.506,36.3957 133.5,35.5C 135.344,36.2039 135.844,37.5372 135,39.5C 131.912,41.2941 128.746,42.9608 125.5,44.5C 106.451,33.3975 87.2841,22.7308 68,12.5C 66.6739,12.7549 65.6739,13.4216 65,14.5C 64.6667,14.1667 64.3333,13.8333 64,13.5C 46.6919,24.2344 29.1919,34.5677 11.5,44.5C 11.19,43.2617 10.69,43.2617 10,44.5C 9.53566,43.9056 9.36899,43.2389 9.5,42.5C 28.8058,31.1782 48.1391,19.8449 67.5,8.5C 87.1077,19.8876 106.941,30.8876 127,41.5C 128.684,41.3166 128.85,40.6499 127.5,39.5 Z"/></g>
<g><path style="opacity:0.997" fill="#f3f2f3" d="M 87.5,49.5 C 85.8333,49.5 84.1667,49.5 82.5,49.5C 80.901,49.2322 79.5676,49.5655 78.5,50.5C 73.7456,51.7123 69.4123,53.7123 65.5,56.5C 62.8877,57.3705 60.221,58.0372 57.5,58.5C 56.7611,58.631 56.0944,58.4643 55.5,58C 56.9842,56.4263 58.6508,55.093 60.5,54C 67.9548,50.7728 75.2881,47.2728 82.5,43.5C 84.914,44.9108 86.5806,46.9108 87.5,49.5 Z"/></g>
<g><path style="opacity:0.992" fill="#3f3f3f" d="M 82.5,49.5 C 84.1667,49.5 85.8333,49.5 87.5,49.5C 88.1667,49.8333 88.8333,50.1667 89.5,50.5C 90.6737,51.5137 91.3404,52.847 91.5,54.5C 92.6829,57.7029 94.0163,60.8695 95.5,64C 94.9444,65.0111 94.2778,65.8444 93.5,66.5C 93.5,69.1667 93.5,71.8333 93.5,74.5C 92.6745,70.0181 92.1745,65.3514 92,60.5C 91.6667,61.8333 91.3333,63.1667 91,64.5C 90.5172,63.552 90.3505,62.552 90.5,61.5C 90.6621,59.4727 90.4955,57.4727 90,55.5C 88.5845,58.9582 88.0845,62.6249 88.5,66.5C 87.6773,69.977 87.1773,73.6437 87,77.5C 87.0947,68.837 87.0947,60.1703 87,51.5C 85.6912,62.1279 84.6912,72.7945 84,83.5C 83.5045,81.5273 83.3379,79.5273 83.5,77.5C 83.5,74.5 83.5,71.5 83.5,68.5C 84.6517,63.0154 84.8184,57.3487 84,51.5C 83.6667,53.5 83.3333,55.5 83,57.5C 82.5026,54.854 82.3359,52.1873 82.5,49.5 Z"/></g>
<g><path style="opacity:0.859" fill="#b3b3b3" d="M 89.5,50.5 C 88.8333,50.1667 88.1667,49.8333 87.5,49.5C 86.5806,46.9108 84.914,44.9108 82.5,43.5C 75.2881,47.2728 67.9548,50.7728 60.5,54C 58.6508,55.093 56.9842,56.4263 55.5,58C 56.0944,58.4643 56.7611,58.631 57.5,58.5C 55.9504,59.7199 54.2837,59.7199 52.5,58.5C 54.9131,56.1128 57.5798,53.9461 60.5,52C 67.9548,48.7728 75.2881,45.2728 82.5,41.5C 86.508,43.1762 88.8413,46.1762 89.5,50.5 Z"/></g>
<g><path style="opacity:0.996" fill="#dddddd" d="M 67.5,58.5 C 67.5,59.8333 67.5,61.1667 67.5,62.5C 66.8333,62.5 66.1667,62.5 65.5,62.5C 65.5,62.1667 65.5,61.8333 65.5,61.5C 65.2852,59.8212 65.9519,58.8212 67.5,58.5 Z"/></g>
<g><path style="opacity:1" fill="#d1d1d1" d="M 52.5,58.5 C 52.3893,59.1174 52.056,59.6174 51.5,60C 55.6195,60.2458 59.6195,60.4124 63.5,60.5C 58.544,61.4941 53.544,61.8275 48.5,61.5C 49.2623,59.7376 50.5956,58.7376 52.5,58.5 Z"/></g>
<g><path style="opacity:0.996" fill="#9a9a9a" d="M 88.5,66.5 C 88.2155,68.4147 88.5489,70.0813 89.5,71.5C 89.1604,75.5475 88.4938,79.5475 87.5,83.5C 86.7492,82.624 86.2492,81.624 86,80.5C 85.5045,82.4727 85.3379,84.4727 85.5,86.5C 84.5,86.5 83.5,86.5 82.5,86.5C 82.19,83.2869 82.5233,80.2869 83.5,77.5C 83.3379,79.5273 83.5045,81.5273 84,83.5C 84.6912,72.7945 85.6912,62.1279 87,51.5C 87.0947,60.1703 87.0947,68.837 87,77.5C 87.1773,73.6437 87.6773,69.977 88.5,66.5 Z"/></g>
<g><path style="opacity:0.996" fill="#cfcfd0" d="M 90.5,61.5 C 89.5489,62.9187 89.2155,64.5853 89.5,66.5C 89.5,68.1667 89.5,69.8333 89.5,71.5C 88.5489,70.0813 88.2155,68.4147 88.5,66.5C 88.0845,62.6249 88.5845,58.9582 90,55.5C 90.4955,57.4727 90.6621,59.4727 90.5,61.5 Z"/></g>
<g><path style="opacity:0.996" fill="#595959" d="M 65.5,56.5 C 66.1667,57.1667 66.8333,57.8333 67.5,58.5C 65.9519,58.8212 65.2852,59.8212 65.5,61.5C 64.6618,61.8417 64.3284,62.5084 64.5,63.5C 58.8236,63.6661 53.1569,63.4994 47.5,63C 48.056,62.6174 48.3893,62.1174 48.5,61.5C 53.544,61.8275 58.544,61.4941 63.5,60.5C 59.6195,60.4124 55.6195,60.2458 51.5,60C 52.056,59.6174 52.3893,59.1174 52.5,58.5C 54.2837,59.7199 55.9504,59.7199 57.5,58.5C 60.221,58.0372 62.8877,57.3705 65.5,56.5 Z"/></g>
<g><path style="opacity:1" fill="#c9c8c9" d="M 48.5,61.5 C 48.3893,62.1174 48.056,62.6174 47.5,63C 53.1569,63.4994 58.8236,63.6661 64.5,63.5C 58.021,64.4907 51.3543,64.824 44.5,64.5C 45.2623,62.7376 46.5956,61.7376 48.5,61.5 Z"/></g>
<g><path style="opacity:0.996" fill="#909090" d="M 44.5,64.5 C 51.0119,65.1666 57.6786,65.8333 64.5,66.5C 57.1968,67.4973 49.8635,67.8306 42.5,67.5C 42.5,66.8333 42.5,66.1667 42.5,65.5C 42.8417,64.6618 43.5084,64.3284 44.5,64.5 Z"/></g>
<g><path style="opacity:0.996" fill="#c7c7c7" d="M 82.5,64.5 C 83.4345,65.5676 83.7678,66.901 83.5,68.5C 83.5,71.5 83.5,74.5 83.5,77.5C 82.5233,80.2869 82.19,83.2869 82.5,86.5C 81.3996,91.6151 80.7329,91.6151 80.5,86.5C 81.3475,79.1775 82.0142,71.8442 82.5,64.5 Z"/></g>
<g><path style="opacity:0.996" fill="#868686" d="M 93.5,74.5 C 93.5,76.5 93.5,78.5 93.5,80.5C 92.8333,80.5 92.1667,80.5 91.5,80.5C 91.8128,76.9581 91.4794,73.6248 90.5,70.5C 90.7678,68.901 90.4345,67.5676 89.5,66.5C 89.2155,64.5853 89.5489,62.9187 90.5,61.5C 90.3505,62.552 90.5172,63.552 91,64.5C 91.3333,63.1667 91.6667,61.8333 92,60.5C 92.1745,65.3514 92.6745,70.0181 93.5,74.5 Z"/></g>
<g><path style="opacity:0.055" fill="#e4e4e4" d="M 97.5,63.5 C 98.6341,65.9664 98.8007,68.633 98,71.5C 97.6174,72.056 97.1174,72.3893 96.5,72.5C 96.7038,69.4824 97.0371,66.4824 97.5,63.5 Z"/></g>
<g><path style="opacity:0.998" fill="#a1a1a1" d="M 9.5,42.5 C 9.36899,43.2389 9.53566,43.9056 10,44.5C 10.69,43.2617 11.19,43.2617 11.5,44.5C 11.5,58.1667 11.5,71.8333 11.5,85.5C 11.6664,94.1731 11.4998,102.84 11,111.5C 10.6667,104.5 10.3333,97.5 10,90.5C 9.50034,97.8258 9.33368,105.159 9.5,112.5C 8.51658,108.702 8.18325,104.702 8.5,100.5C 8.5,81.5 8.5,62.5 8.5,43.5C 8.5,42.8333 8.83333,42.5 9.5,42.5 Z"/></g>
<g><path style="opacity:0.996" fill="#8a8a8b" d="M 78.5,50.5 C 79.5676,49.5655 80.901,49.2322 82.5,49.5C 82.3359,52.1873 82.5026,54.854 83,57.5C 83.3333,55.5 83.6667,53.5 84,51.5C 84.8184,57.3487 84.6517,63.0154 83.5,68.5C 83.7678,66.901 83.4345,65.5676 82.5,64.5C 82.6567,63.1266 82.49,61.7932 82,60.5C 81.0533,71.1955 79.8866,81.8622 78.5,92.5C 78.4612,87.049 78.1278,81.7156 77.5,76.5C 77.7845,74.5853 77.4511,72.9187 76.5,71.5C 76.785,64.7295 77.6183,58.0628 79,51.5C 79.3333,54.5 79.6667,57.5 80,60.5C 80.1667,58.8333 80.3333,57.1667 80.5,55.5C 80.4439,53.3603 79.7773,51.6936 78.5,50.5 Z"/></g>
<g><path style="opacity:0.949" fill="#898989" d="M 91.5,54.5 C 95.0915,56.4272 97.0915,59.4272 97.5,63.5C 97.0371,66.4824 96.7038,69.4824 96.5,72.5C 96.7373,73.791 96.404,74.791 95.5,75.5C 94.8333,72.5 94.1667,69.5 93.5,66.5C 94.2778,65.8444 94.9444,65.0111 95.5,64C 94.0163,60.8695 92.6829,57.7029 91.5,54.5 Z"/></g>
<g><path style="opacity:0.998" fill="#b8b8b8" d="M 42.5,65.5 C 42.5,66.1667 42.5,66.8333 42.5,67.5C 49.6775,68.1666 57.0109,68.8333 64.5,69.5C 56.8549,70.3315 49.1883,70.8315 41.5,71C 49.0115,71.1712 56.3448,71.6712 63.5,72.5C 56.4684,72.1697 49.4684,72.503 42.5,73.5C 49.1335,74.4967 55.8002,74.83 62.5,74.5C 55.8333,75.1667 49.1667,75.8333 42.5,76.5C 41.7109,76.2172 41.0442,75.7172 40.5,75C 40.7266,72.631 40.8933,70.131 41,67.5C 41.2784,66.5842 41.7784,65.9175 42.5,65.5 Z"/></g>
<g><path style="opacity:0.996" fill="#646465" d="M 63.5,72.5 C 63.1667,73.1667 62.8333,73.8333 62.5,74.5C 55.8002,74.83 49.1335,74.4967 42.5,73.5C 49.4684,72.503 56.4684,72.1697 63.5,72.5 Z"/></g>
<g><path style="opacity:0.998" fill="#cecece" d="M 90.5,70.5 C 91.4794,73.6248 91.8128,76.9581 91.5,80.5C 90.0584,83.1997 89.3917,82.8664 89.5,79.5C 90.1616,76.5318 90.495,73.5318 90.5,70.5 Z"/></g>
<g><path style="opacity:0.996" fill="#999999" d="M 42.5,76.5 C 48.8682,76.1703 55.2015,76.5037 61.5,77.5C 55.6805,78.1668 50.0139,78.8335 44.5,79.5C 44.5,80.1667 44.5,80.8333 44.5,81.5C 43.4625,80.0697 42.7959,78.403 42.5,76.5 Z"/></g>
<g><path style="opacity:0.996" fill="#888788" d="M 44.5,79.5 C 49.544,79.1725 54.544,79.5059 59.5,80.5C 59.1373,81.1835 58.8039,81.8501 58.5,82.5C 53.8333,82.5 49.1667,82.5 44.5,82.5C 44.5,82.1667 44.5,81.8333 44.5,81.5C 44.5,80.8333 44.5,80.1667 44.5,79.5 Z"/></g>
<g><path style="opacity:0.98" fill="#3d3d3d" d="M 8.5,43.5 C 8.5,62.5 8.5,81.5 8.5,100.5C 7.51511,104.634 7.18178,108.968 7.5,113.5C 6.50558,103.013 6.17225,92.3464 6.5,81.5C 7.16667,68.8333 7.83333,56.1667 8.5,43.5 Z"/></g>
<g><path style="opacity:0.999" fill="#cccccd" d="M 44.5,82.5 C 49.1667,82.5 53.8333,82.5 58.5,82.5C 54.5,83.1667 50.5,83.8333 46.5,84.5C 45.5,84.1667 44.8333,83.5 44.5,82.5 Z"/></g>
<g><path style="opacity:0.997" fill="#f7f7f7" d="M 91.5,83.5 C 92.6491,83.7911 93.3158,84.6244 93.5,86C 93.0531,88.9559 92.2197,91.7892 91,94.5C 85.9184,97.958 80.7517,101.291 75.5,104.5C 74.7025,104.043 74.3691,103.376 74.5,102.5C 74.5,100.167 74.5,97.8333 74.5,95.5C 76.5932,94.9553 78.5932,94.122 80.5,93C 83.7438,89.2499 87.4105,86.0832 91.5,83.5 Z"/></g>
<g><path style="opacity:1" fill="#a1a1a1" d="M 46.5,84.5 C 50.226,84.1774 53.8927,84.5108 57.5,85.5C 54.6944,86.1676 52.0277,86.8343 49.5,87.5C 48.1667,86.8333 47.1667,85.8333 46.5,84.5 Z"/></g>
<g><path style="opacity:1" fill="#929293" d="M 49.5,87.5 C 53.9035,86.7824 57.5702,87.9491 60.5,91C 58.2922,91.1909 56.2922,91.6909 54.5,92.5C 52.5,91.1667 50.8333,89.5 49.5,87.5 Z"/></g>
<g><path style="opacity:0.914" fill="#5f5f5f" d="M 1.5,39.5 C 1.5,51.8333 1.5,64.1667 1.5,76.5C 1.66656,89.5043 1.49989,102.504 1,115.5C 0.828793,107.989 0.328793,100.655 -0.5,93.5C -0.5,75.5 -0.5,57.5 -0.5,39.5C 0.395666,38.4937 1.06233,38.4937 1.5,39.5 Z"/></g>
<g><path style="opacity:0.996" fill="#2c2c2c" d="M 78.5,50.5 C 79.7773,51.6936 80.4439,53.3603 80.5,55.5C 80.3333,57.1667 80.1667,58.8333 80,60.5C 79.6667,57.5 79.3333,54.5 79,51.5C 77.6183,58.0628 76.785,64.7295 76.5,71.5C 75.711,67.8702 75.5444,61.5368 76,52.5C 74.6976,53.0848 73.531,53.7515 72.5,54.5C 71.129,64.9805 70.129,75.6472 69.5,86.5C 69.5046,88.6965 69.838,90.6965 70.5,92.5C 71.1667,92.8333 71.8333,93.1667 72.5,93.5C 73.2679,92.7375 73.7679,91.7375 74,90.5C 74.2492,91.624 74.7492,92.624 75.5,93.5C 76.4421,87.8594 77.1087,82.1927 77.5,76.5C 78.1278,81.7156 78.4612,87.049 78.5,92.5C 79.8866,81.8622 81.0533,71.1955 82,60.5C 82.49,61.7932 82.6567,63.1266 82.5,64.5C 82.0142,71.8442 81.3475,79.1775 80.5,86.5C 80.7329,91.6151 81.3996,91.6151 82.5,86.5C 83.5,86.5 84.5,86.5 85.5,86.5C 85.3379,84.4727 85.5045,82.4727 86,80.5C 86.2492,81.624 86.7492,82.624 87.5,83.5C 88.4938,79.5475 89.1604,75.5475 89.5,71.5C 89.5,69.8333 89.5,68.1667 89.5,66.5C 90.4345,67.5676 90.7678,68.901 90.5,70.5C 90.495,73.5318 90.1616,76.5318 89.5,79.5C 89.3917,82.8664 90.0584,83.1997 91.5,80.5C 92.1667,80.5 92.8333,80.5 93.5,80.5C 93.9382,80.4346 94.2716,80.6012 94.5,81C 93.4293,81.8518 92.4293,82.6851 91.5,83.5C 87.4105,86.0832 83.7438,89.2499 80.5,93C 78.5932,94.122 76.5932,94.9553 74.5,95.5C 73.8333,95.5 73.1667,95.5 72.5,95.5C 67.8215,95.6658 63.1548,95.4992 58.5,95C 62.1667,94.6667 65.8333,94.3333 69.5,94C 64.6278,92.6115 59.6278,92.1115 54.5,92.5C 56.2922,91.6909 58.2922,91.1909 60.5,91C 57.5702,87.9491 53.9035,86.7824 49.5,87.5C 52.0277,86.8343 54.6944,86.1676 57.5,85.5C 53.8927,84.5108 50.226,84.1774 46.5,84.5C 50.5,83.8333 54.5,83.1667 58.5,82.5C 58.8039,81.8501 59.1373,81.1835 59.5,80.5C 54.544,79.5059 49.544,79.1725 44.5,79.5C 50.0139,78.8335 55.6805,78.1668 61.5,77.5C 55.2015,76.5037 48.8682,76.1703 42.5,76.5C 49.1667,75.8333 55.8333,75.1667 62.5,74.5C 62.8333,73.8333 63.1667,73.1667 63.5,72.5C 56.3448,71.6712 49.0115,71.1712 41.5,71C 49.1883,70.8315 56.8549,70.3315 64.5,69.5C 57.0109,68.8333 49.6775,68.1666 42.5,67.5C 49.8635,67.8306 57.1968,67.4973 64.5,66.5C 57.6786,65.8333 51.0119,65.1666 44.5,64.5C 51.3543,64.824 58.021,64.4907 64.5,63.5C 64.3284,62.5084 64.6618,61.8417 65.5,61.5C 65.5,61.8333 65.5,62.1667 65.5,62.5C 65.5,64.8333 65.5,67.1667 65.5,69.5C 63.921,75.1571 61.921,80.6571 59.5,86C 60.123,89.1607 62.123,90.6607 65.5,90.5C 65.5,88.1667 65.5,85.8333 65.5,83.5C 66.1657,86.0277 66.8324,88.6944 67.5,91.5C 69.1402,79.538 69.9735,67.538 70,55.5C 68.5949,58.6188 68.0949,61.9521 68.5,65.5C 67.596,64.791 67.2627,63.791 67.5,62.5C 67.5,61.1667 67.5,59.8333 67.5,58.5C 66.8333,57.8333 66.1667,57.1667 65.5,56.5C 69.4123,53.7123 73.7456,51.7123 78.5,50.5 Z"/></g>
<g><path style="opacity:1" fill="#9d9d9d" d="M 76.5,71.5 C 77.4511,72.9187 77.7845,74.5853 77.5,76.5C 77.1087,82.1927 76.4421,87.8594 75.5,93.5C 74.7492,92.624 74.2492,91.624 74,90.5C 73.7679,91.7375 73.2679,92.7375 72.5,93.5C 72.5782,86.485 72.9115,79.485 73.5,72.5C 74.8333,67.5 74.8333,62.5 73.5,57.5C 73.7373,56.209 73.404,55.209 72.5,54.5C 73.531,53.7515 74.6976,53.0848 76,52.5C 75.5444,61.5368 75.711,67.8702 76.5,71.5 Z"/></g>
<g><path style="opacity:0.996" fill="#4d4d4d" d="M 72.5,69.5 C 73.404,70.209 73.7373,71.209 73.5,72.5C 72.9115,79.485 72.5782,86.485 72.5,93.5C 71.8333,93.1667 71.1667,92.8333 70.5,92.5C 71.2217,84.8396 71.8884,77.1729 72.5,69.5 Z"/></g>
<g><path style="opacity:0.996" fill="#e9e9e9" d="M 65.5,69.5 C 66.4731,71.9479 66.8064,74.6146 66.5,77.5C 65.5386,79.2646 65.2053,81.2646 65.5,83.5C 65.5,85.8333 65.5,88.1667 65.5,90.5C 62.123,90.6607 60.123,89.1607 59.5,86C 61.921,80.6571 63.921,75.1571 65.5,69.5 Z"/></g>
<g><path style="opacity:0.992" fill="#585858" d="M 73.5,57.5 C 74.8333,62.5 74.8333,67.5 73.5,72.5C 73.7373,71.209 73.404,70.209 72.5,69.5C 72.6458,65.4809 72.9791,61.4809 73.5,57.5 Z"/></g>
<g><path style="opacity:0.996" fill="#595959" d="M 65.5,62.5 C 66.1667,62.5 66.8333,62.5 67.5,62.5C 67.2627,63.791 67.596,64.791 68.5,65.5C 68.3303,70.8591 67.8303,76.1924 67,81.5C 66.51,80.2068 66.3433,78.8734 66.5,77.5C 66.8064,74.6146 66.4731,71.9479 65.5,69.5C 65.5,67.1667 65.5,64.8333 65.5,62.5 Z"/></g>
<g><path style="opacity:0.997" fill="#cccccc" d="M 72.5,54.5 C 73.404,55.209 73.7373,56.209 73.5,57.5C 72.9791,61.4809 72.6458,65.4809 72.5,69.5C 71.8884,77.1729 71.2217,84.8396 70.5,92.5C 69.838,90.6965 69.5046,88.6965 69.5,86.5C 70.129,75.6472 71.129,64.9805 72.5,54.5 Z"/></g>
<g><path style="opacity:0.996" fill="#9a9a9a" d="M 65.5,83.5 C 65.2053,81.2646 65.5386,79.2646 66.5,77.5C 66.3433,78.8734 66.51,80.2068 67,81.5C 67.8303,76.1924 68.3303,70.8591 68.5,65.5C 68.0949,61.9521 68.5949,58.6188 70,55.5C 69.9735,67.538 69.1402,79.538 67.5,91.5C 66.8324,88.6944 66.1657,86.0277 65.5,83.5 Z"/></g>
<g><path style="opacity:0.008" fill="#fcfdfc" d="M 92.5,95.5 C 93.8333,96.1667 93.8333,96.1667 92.5,95.5 Z"/></g>
<g><path style="opacity:1" fill="#a4a4a5" d="M 54.5,92.5 C 59.6278,92.1115 64.6278,92.6115 69.5,94C 65.8333,94.3333 62.1667,94.6667 58.5,95C 63.1548,95.4992 67.8215,95.6658 72.5,95.5C 68.9558,97.2684 64.9558,98.1018 60.5,98C 64.4862,98.4988 68.4862,98.6655 72.5,98.5C 72.5,99.8333 72.5,101.167 72.5,102.5C 69.1501,102.335 65.8168,102.502 62.5,103C 65.5535,103.179 68.5535,103.679 71.5,104.5C 69.2338,105.314 66.9005,105.814 64.5,106C 66.5,106.333 68.5,106.667 70.5,107C 69.1667,107.333 67.8333,107.667 66.5,108C 67.9617,109.628 69.6283,109.795 71.5,108.5C 70.3409,110.377 68.6742,110.877 66.5,110C 62.3666,104.225 58.3666,98.3913 54.5,92.5 Z"/></g>
<g><path style="opacity:0.996" fill="#414141" d="M 72.5,95.5 C 73.1667,95.5 73.8333,95.5 74.5,95.5C 74.5,97.8333 74.5,100.167 74.5,102.5C 73.2616,104.214 72.595,106.214 72.5,108.5C 72.1667,108.5 71.8333,108.5 71.5,108.5C 69.6283,109.795 67.9617,109.628 66.5,108C 67.8333,107.667 69.1667,107.333 70.5,107C 68.5,106.667 66.5,106.333 64.5,106C 66.9005,105.814 69.2338,105.314 71.5,104.5C 68.5535,103.679 65.5535,103.179 62.5,103C 65.8168,102.502 69.1501,102.335 72.5,102.5C 72.5,101.167 72.5,99.8333 72.5,98.5C 68.4862,98.6655 64.4862,98.4988 60.5,98C 64.9558,98.1018 68.9558,97.2684 72.5,95.5 Z"/></g>
<g><path style="opacity:0.496" fill="#cdcdcd" d="M 93.5,66.5 C 94.1667,69.5 94.8333,72.5 95.5,75.5C 95.7967,82.4267 94.7967,89.0934 92.5,95.5C 85.8333,99.8333 79.1667,104.167 72.5,108.5C 72.595,106.214 73.2616,104.214 74.5,102.5C 74.3691,103.376 74.7025,104.043 75.5,104.5C 80.7517,101.291 85.9184,97.958 91,94.5C 92.2197,91.7892 93.0531,88.9559 93.5,86C 93.3158,84.6244 92.6491,83.7911 91.5,83.5C 92.4293,82.6851 93.4293,81.8518 94.5,81C 94.2716,80.6012 93.9382,80.4346 93.5,80.5C 93.5,78.5 93.5,76.5 93.5,74.5C 93.5,71.8333 93.5,69.1667 93.5,66.5 Z"/></g>
<g><path style="opacity:0.776" fill="#c0c0c0" d="M 1.5,76.5 C 2.33102,89.6604 2.83102,102.994 3,116.5C 24.8333,129 46.6667,141.5 68.5,154C 67.552,154.483 66.552,154.649 65.5,154.5C 43.787,141.644 21.787,129.31 -0.5,117.5C -0.5,109.5 -0.5,101.5 -0.5,93.5C 0.328793,100.655 0.828793,107.989 1,115.5C 1.49989,102.504 1.66656,89.5043 1.5,76.5 Z"/></g>
<g><path style="opacity:1" fill="#bfbfbf" d="M 11.5,85.5 C 12.3294,93.6566 12.8294,101.99 13,110.5C 31.4183,121.293 49.9183,131.96 68.5,142.5C 87.9503,131.027 107.45,119.693 127,108.5C 128.518,109.163 129.685,110.163 130.5,111.5C 129.127,111.343 127.793,111.51 126.5,112C 107.62,123.941 88.2862,135.107 68.5,145.5C 48.5622,134.875 28.8955,123.875 9.5,112.5C 9.33368,105.159 9.50034,97.8258 10,90.5C 10.3333,97.5 10.6667,104.5 11,111.5C 11.4998,102.84 11.6664,94.1731 11.5,85.5 Z"/></g>
<g><path style="opacity:0.286" fill="#c4c4c4" d="M 130.5,111.5 C 132.703,111.604 134.703,112.27 136.5,113.5C 136.5,114.5 136.5,115.5 136.5,116.5C 114.473,129.178 92.4726,141.845 70.5,154.5C 70.0618,154.565 69.7284,154.399 69.5,154C 90.3355,141.414 111.336,129.081 132.5,117C 133.694,114.342 132.694,113.176 129.5,113.5C 129.833,112.833 130.167,112.167 130.5,111.5 Z"/></g>
<g><path style="opacity:0.992" fill="#212121" d="M 8.5,100.5 C 8.18325,104.702 8.51658,108.702 9.5,112.5C 28.8955,123.875 48.5622,134.875 68.5,145.5C 88.2862,135.107 107.62,123.941 126.5,112C 127.793,111.51 129.127,111.343 130.5,111.5C 130.167,112.167 129.833,112.833 129.5,113.5C 109.127,124.771 88.9602,136.438 69,148.5C 48.2096,137.193 27.7096,125.526 7.5,113.5C 7.18178,108.968 7.51511,104.634 8.5,100.5 Z"/></g>
</svg>
