<svg width="342.000000" height="342.000000" viewBox="0 0 342 342" fill="none" xmlns="http://www.w3.org/2000/svg" xmlns:xlink="http://www.w3.org/1999/xlink">
	<desc>
			Created with Pixso.
	</desc>
	<defs/>
	<path id="Vector" d="M171 0C265.44 0 342 76.55 342 171C342 265.44 265.44 342 171 342C76.55 342 0 265.44 0 171C0 76.55 76.55 0 171 0ZM289.78 152.88L265.58 152.88L265.58 204.98L289.78 204.98L289.78 216.68L265.58 216.68L265.58 234.82L234.19 234.82L234.19 216.68L212.99 216.68L212.99 234.82L181.59 234.82L181.59 216.68L160.39 216.68L160.39 234.82L129 234.82L129 216.68L107.79 216.68L107.79 234.82L76.4 234.82L76.4 216.68L52.2 216.68L52.2 204.98L76.4 204.98L76.4 152.88L52.2 152.88L52.2 141.18L76.4 141.18L76.4 133.22L76.75 131.68L88.9 106.83L92.03 100.41L95.19 106.83L107.42 131.68L107.79 133.22L107.79 141.18L128.99 141.18L128.99 133.22L129.35 131.68L141.49 106.83L144.63 100.41L147.79 106.83L160.02 131.68L160.38 133.22L160.38 141.18L181.59 141.18L181.59 133.22L181.95 131.68L194.09 106.83L197.23 100.41L200.39 106.83L212.61 131.68L212.98 133.22L212.98 141.18L234.18 141.18L234.18 133.22L234.54 131.68L246.68 106.83L249.82 100.41L252.98 106.83L265.2 131.68L265.57 133.22L265.57 141.18L289.77 141.18L289.77 152.88L289.78 152.88ZM107.8 204.98L129 204.98L129 152.88L107.8 152.88L107.8 204.98ZM160.39 204.98L181.6 204.98L181.6 152.88L160.39 152.88L160.39 204.98ZM212.99 204.98L234.19 204.98L234.19 152.88L212.99 152.88L212.99 204.98Z" fill="#FFE522" fill-opacity="1.000000" fill-rule="evenodd"/>
</svg>
